<?xml version="1.0" encoding="utf-8"?>
<!-- Generator: Adobe Illustrator 19.0.0, SVG Export Plug-In . SVG Version: 6.00 Build 0)  -->
<svg version="1.1" id="Layer_1" xmlns="http://www.w3.org/2000/svg" xmlns:xlink="http://www.w3.org/1999/xlink" x="0px" y="0px"
	 viewBox="0 0 259.5 57.5" style="enable-background:new 0 0 259.5 57.5;" xml:space="preserve">
<style type="text/css">
	.st0{fill:#FFFFFF;}
</style>
<g>
	<path class="st0" d="M11,31.1c1.1,0.8,2.3,1.5,3.5,2C15,32,15.7,31,16.5,30l1.1-1.3l-1.1-1.3c-3.3-4-4.8-9.4-4.2-15.2
		c1.5-0.1,2.9-0.2,4.2-0.1c0.5-1.3,1.1-2.6,1.8-3.8C15.8,8,13,8.1,10.2,8.5L8.8,8.7l-0.2,1.4c-1.1,6.9,0.3,13.5,3.9,18.5
		C11.9,29.5,11.4,30.3,11,31.1 M14.5,17.9c0.2,1.3,0.6,2.6,1,3.9c1.2-0.4,2.5-0.6,3.7-0.8l1.7-0.2l0.2-1.7c0.5-5.2,3.2-10,7.7-13.7
		c1.1,0.9,2.1,1.9,3,3c1.3-0.6,2.6-1,4-1.4c-1.6-2.1-3.6-4-5.9-5.7l-1.2-0.9l-1.2,0.9c-5.7,4.1-9.3,9.7-10.3,15.9
		C16.3,17.4,15.4,17.6,14.5,17.9 M17.9,43c1.3-0.2,2.6-0.6,3.9-1c-0.4-1.2-0.6-2.5-0.8-3.7l-0.2-1.7l-1.7-0.2
		c-5.2-0.5-10-3.2-13.7-7.7c0.9-1.1,1.9-2.1,3-3c-0.6-1.3-1-2.6-1.4-4c-2.1,1.6-4,3.6-5.7,5.9l-0.9,1.2l0.9,1.2
		c4.1,5.7,9.7,9.3,15.9,10.3C17.4,41.1,17.6,42.1,17.9,43 M26.3,10.9c-0.8,1.1-1.5,2.3-2,3.5c1.1,0.6,2.2,1.3,3.2,2.1l1.3,1.1
		l1.3-1.1c4-3.3,9.3-4.8,15.2-4.2c0.1,1.5,0.2,2.9,0.1,4.2c1.3,0.5,2.6,1.1,3.8,1.8c0.4-2.6,0.3-5.4-0.1-8.2l-0.2-1.4l-1.4-0.2
		c-6.9-1.1-13.4,0.3-18.5,3.9C28,11.9,27.2,11.4,26.3,10.9 M46.5,26.3c-1.1-0.8-2.3-1.5-3.5-2c-0.6,1.1-1.3,2.2-2.1,3.2l-1.1,1.3
		L41,30c3.3,4,4.8,9.4,4.2,15.2c-1.4,0.1-2.9,0.2-4.2,0c-0.5,1.3-1.1,2.6-1.8,3.8c2.6,0.4,5.4,0.3,8.2-0.1l1.4-0.2l0.2-1.4
		c1.1-6.9-0.3-13.4-3.9-18.5C45.6,27.9,46.1,27.1,46.5,26.3 M31.2,46.5c0.8-1.1,1.5-2.3,2-3.5c-1.1-0.6-2.2-1.3-3.2-2.1l-1.3-1.1
		l-1.3,1.1c-4,3.3-9.3,4.8-15.2,4.2c-0.1-1.4-0.2-2.9,0-4.2C11,40.4,9.7,39.8,8.4,39c-0.4,2.6-0.3,5.4,0.1,8.2l0.2,1.4l1.4,0.2
		c6.9,1.1,13.5-0.3,18.5-3.9C29.5,45.5,30.3,46,31.2,46.5 M56.1,27.5c-4.1-5.7-9.7-9.3-15.9-10.3c-0.2-0.9-0.4-1.9-0.7-2.8
		c-1.4,0.2-2.6,0.6-3.9,1c0.4,1.2,0.6,2.5,0.8,3.7l0.2,1.7l1.7,0.2c5.2,0.5,10,3.2,13.7,7.7c-0.9,1.1-1.9,2.1-3,3
		c0.6,1.3,1,2.6,1.4,4c2.1-1.6,4-3.6,5.7-5.9l0.9-1.2L56.1,27.5z M43,39.5c-0.2-1.3-0.6-2.6-1-3.9c-1.2,0.4-2.5,0.6-3.7,0.8
		l-1.7,0.2l-0.2,1.7c-0.5,5.2-3.2,10-7.7,13.7c-1.1-0.9-2.1-1.9-3-3c-1.3,0.6-2.6,1-4,1.4c1.6,2.1,3.6,4,5.9,5.7l1.2,0.9l1.2-0.9
		c5.7-4.1,9.3-9.7,10.3-15.9C41.2,40,42.1,39.8,43,39.5"/>
	<path class="st0" d="M68.3,37.4L68.3,37.4c0-3.2,2.5-5.8,5.9-5.8c3.4,0,5.9,2.5,5.9,5.7v0c0,3.1-2.5,5.7-5.9,5.7
		C70.8,43.1,68.3,40.5,68.3,37.4 M77.6,37.4L77.6,37.4c0-2-1.4-3.6-3.4-3.6c-2,0-3.4,1.6-3.4,3.5v0c0,1.9,1.4,3.6,3.4,3.6
		C76.2,40.9,77.6,39.3,77.6,37.4"/>
	<polygon class="st0" points="82.4,31.8 90.8,31.8 90.8,33.9 84.7,33.9 84.7,36.4 90.1,36.4 90.1,38.6 84.7,38.6 84.7,42.9 
		82.4,42.9 	"/>
	<path class="st0" d="M101.6,31.7h2.2l4.8,11.2h-2.5l-1-2.5h-4.8l-1,2.5h-2.4L101.6,31.7z M104.2,38.3l-1.6-3.8l-1.6,3.8H104.2z"/>
	<polygon class="st0" points="110.1,41.1 116.2,33.9 110.3,33.9 110.3,31.8 119.3,31.8 119.3,33.6 113.1,40.8 119.3,40.8 
		119.3,42.9 110.1,42.9 	"/>
	<polygon class="st0" points="121.7,31.8 130.1,31.8 130.1,33.9 124,33.9 124,36.3 129.3,36.3 129.3,38.4 124,38.4 124,40.8 
		130.1,40.8 130.1,42.9 121.7,42.9 	"/>
	<path class="st0" d="M132.5,31.8h5c1.4,0,2.5,0.4,3.2,1.1c0.6,0.6,0.9,1.5,0.9,2.5v0c0,1.8-1,2.9-2.4,3.4l2.8,4h-2.7l-2.5-3.6h-2
		v3.6h-2.3V31.8z M137.3,37.2c1.2,0,1.9-0.7,1.9-1.6v0c0-1.1-0.8-1.6-2-1.6h-2.5v3.3H137.3z"/>
	<path class="st0" d="M144,31.8h5.1c1.3,0,2.3,0.4,2.9,1c0.5,0.5,0.7,1.1,0.7,1.9v0c0,1.3-0.7,2-1.5,2.4c1.3,0.5,2.1,1.2,2.1,2.7v0
		c0,2-1.6,3-4.1,3H144V31.8z M150.5,35c0-0.7-0.6-1.2-1.7-1.2h-2.5v2.5h2.3C149.8,36.3,150.5,35.9,150.5,35L150.5,35z M149.2,38.3
		h-2.9v2.6h3c1.1,0,1.8-0.4,1.8-1.3v0C151.1,38.7,150.5,38.3,149.2,38.3"/>
	<path class="st0" d="M159.4,31.7h2.2l4.8,11.2h-2.5l-1-2.5H158l-1,2.5h-2.4L159.4,31.7z M162,38.3l-1.6-3.8l-1.6,3.8H162z"/>
	<rect x="168.3" y="31.8" class="st0" width="2.3" height="11.1"/>
	<path class="st0" d="M172.5,41.4l1.5-1.6c0.6,0.7,1.2,1.2,2.1,1.2c0.9,0,1.6-0.6,1.6-1.9v-7.2h2.4v7.3c0,1.3-0.4,2.3-1,3
		c-0.7,0.7-1.7,1-2.8,1C174.4,43,173.2,42.3,172.5,41.4"/>
	<path class="st0" d="M186.1,31.7h2.2l4.8,11.2h-2.4l-1-2.5h-4.8l-1,2.5h-2.4L186.1,31.7z M188.7,38.3l-1.6-3.8l-1.6,3.8H188.7z"/>
	<polygon class="st0" points="194.9,31.8 197,31.8 202.4,38.8 202.4,31.8 204.7,31.8 204.7,42.9 202.7,42.9 197.2,35.7 197.2,42.9 
		194.9,42.9 	"/>
	<rect x="68.6" y="14.4" class="st0" width="2.3" height="11.1"/>
	<polygon class="st0" points="73.9,14.4 76,14.4 81.3,21.3 81.3,14.4 83.7,14.4 83.7,25.4 81.7,25.4 76.2,18.2 76.2,25.4 73.9,25.4 
			"/>
	<polygon class="st0" points="89.1,16.5 85.7,16.5 85.7,14.4 94.8,14.4 94.8,16.5 91.4,16.5 91.4,25.4 89.1,25.4 	"/>
	<polygon class="st0" points="96.8,14.4 105.1,14.4 105.1,16.4 99.1,16.4 99.1,18.8 104.4,18.8 104.4,20.9 99.1,20.9 99.1,23.3 
		105.2,23.3 105.2,25.4 96.8,25.4 	"/>
	<path class="st0" d="M107.5,14.4h5c1.4,0,2.5,0.4,3.2,1.1c0.6,0.6,0.9,1.5,0.9,2.5v0c0,1.8-1,2.9-2.4,3.4l2.8,4h-2.7l-2.4-3.6h-2
		v3.6h-2.3V14.4z M112.4,19.8c1.2,0,1.9-0.7,1.9-1.6v0c0-1.1-0.8-1.6-2-1.6h-2.5v3.3H112.4z"/>
	<polygon class="st0" points="119.1,14.4 121.2,14.4 126.6,21.3 126.6,14.4 128.9,14.4 128.9,25.4 126.9,25.4 121.4,18.2 
		121.4,25.4 119.1,25.4 	"/>
	<path class="st0" d="M135.5,14.3h2.2l4.8,11.1H140l-1-2.5h-4.8l-1,2.5h-2.4L135.5,14.3z M138.1,20.8l-1.6-3.8l-1.6,3.8H138.1z"/>
	<polygon class="st0" points="145.5,16.5 142.1,16.5 142.1,14.4 151.2,14.4 151.2,16.5 147.8,16.5 147.8,25.4 145.5,25.4 	"/>
	<rect x="153.4" y="14.4" class="st0" width="2.3" height="11.1"/>
	<path class="st0" d="M158.1,19.9L158.1,19.9c0-3.2,2.5-5.7,5.9-5.7c3.4,0,5.9,2.5,5.9,5.7v0c0,3.1-2.5,5.7-5.9,5.7
		C160.6,25.6,158.1,23.1,158.1,19.9 M167.4,19.9L167.4,19.9c0-2-1.4-3.6-3.4-3.6c-2,0-3.4,1.6-3.4,3.5v0c0,1.9,1.4,3.6,3.4,3.6
		C166,23.5,167.4,21.9,167.4,19.9"/>
	<polygon class="st0" points="172.2,14.4 174.3,14.4 179.7,21.3 179.7,14.4 182,14.4 182,25.4 180,25.4 174.5,18.2 174.5,25.4 
		172.2,25.4 	"/>
	<path class="st0" d="M188.6,14.3h2.2l4.8,11.1h-2.4l-1-2.5h-4.8l-1,2.5h-2.4L188.6,14.3z M191.2,20.8l-1.6-3.8l-1.6,3.8H191.2z"/>
	<polygon class="st0" points="197.4,14.4 199.7,14.4 199.7,23.3 205.3,23.3 205.3,25.4 197.4,25.4 	"/>
	<path class="st0" d="M212.6,14.4h5.1c1.3,0,2.3,0.3,2.9,1c0.5,0.5,0.7,1.1,0.7,1.9v0c0,1.3-0.7,2-1.5,2.4c1.3,0.5,2.1,1.2,2.1,2.7
		v0c0,2-1.6,3-4.1,3h-5.2V14.4z M219.1,17.6c0-0.7-0.6-1.2-1.7-1.2h-2.5v2.5h2.3C218.4,18.9,219.1,18.5,219.1,17.6L219.1,17.6z
		 M217.8,20.8h-2.9v2.6h3c1.1,0,1.8-0.4,1.8-1.3v0C219.7,21.3,219.1,20.8,217.8,20.8"/>
	<path class="st0" d="M228,14.3h2.2l4.8,11.1h-2.4l-1-2.5h-4.8l-1,2.5h-2.4L228,14.3z M230.6,20.8l-1.5-3.8l-1.6,3.8H230.6z"/>
	<polygon class="st0" points="236.8,14.4 238.9,14.4 244.3,21.3 244.3,14.4 246.6,14.4 246.6,25.4 244.6,25.4 239.1,18.2 
		239.1,25.4 236.8,25.4 	"/>
	<polygon class="st0" points="249.4,14.4 251.7,14.4 251.7,19.3 256.3,14.4 259.2,14.4 254.7,19.1 259.4,25.4 256.6,25.4 
		253.1,20.7 251.7,22.1 251.7,25.4 249.4,25.4 	"/>
</g>
</svg>
