<?xml version="1.0" encoding="iso-8859-1"?>
<!-- Generator: Adobe Illustrator 19.0.0, SVG Export Plug-In . SVG Version: 6.00 Build 0)  -->
<svg version="1.1" id="Layer_1" xmlns="http://www.w3.org/2000/svg" xmlns:xlink="http://www.w3.org/1999/xlink" x="0px" y="0px"
	 viewBox="-49 141 512 512" style="enable-background:new -49 141 512 512;" xml:space="preserve">
<path style="fill:#FF5050;" d="M392.412,281.235v338.781c0,18.219-14.778,32.983-32.983,32.983H54.572
	c-18.219,0-32.983-14.764-32.983-32.983V173.983c0-18.219,14.764-32.983,32.983-32.983h197.605L392.412,281.235z"/>
<polygon style="fill:#EA4747;" points="271.31,278.188 392.412,328.079 392.412,281.235 323.751,260.962 "/>
<path style="fill:#FF6C6C;" d="M392.412,281.235H285.16c-18.22,0-32.983-14.764-32.983-32.983V141L392.412,281.235z"/>
<g>
	<path style="fill:#FFFFFF;" d="M195.314,399.344L195.314,399.344C196.841,399.344,196.841,399.344,195.314,399.344
		c1.527-6.263,3.132-9.396,3.132-14.054v-3.132c1.526-7.887,1.526-14.151,0-15.678v-1.604l-1.605-1.527c0,0,0,1.527-1.527,1.527
		C192.163,374.271,192.163,385.29,195.314,399.344L195.314,399.344z M148.279,507.391c-3.131,1.527-6.185,3.132-7.79,4.659
		c-10.942,9.415-18.81,20.415-20.338,25.094C129.547,535.596,138.962,526.201,148.279,507.391
		C149.884,507.391,149.884,507.391,148.279,507.391C149.884,507.391,148.279,507.391,148.279,507.391L148.279,507.391z
		 M292.419,483.922c-1.605-1.604-7.888-6.283-29.83-6.283h-3.054v1.546c10.922,4.737,21.864,7.869,29.732,7.869h4.678v-1.605
		C293.946,485.449,292.419,485.449,292.419,483.922L292.419,483.922z M298.683,496.449c-3.132,1.546-7.869,3.151-14.152,3.151
		c-12.527,0-31.259-3.151-46.938-11.02c-26.62,3.132-47.035,6.264-62.616,12.547c-1.605,0-1.605,0-3.152,1.605
		c-18.81,32.864-34.469,48.464-47.016,48.464c-3.131,0-4.659,0-6.263-1.527l-7.81-4.658v-1.605c-1.605-3.132-1.605-4.659-1.605-7.81
		c1.605-7.869,11.02-21.942,29.831-32.864c3.132-1.605,7.791-4.738,14.054-7.888c4.678-7.79,9.415-17.205,15.678-28.128
		c7.81-15.678,12.547-31.357,17.205-45.41c-6.263-18.81-9.395-29.831-3.131-51.694c1.526-6.264,6.264-12.547,12.546-12.547h3.132
		c3.132,0,6.263,1.527,9.396,3.132c10.941,10.941,6.283,36.015,0,56.353v1.606c6.283,17.205,15.6,31.279,25.015,40.693
		c4.736,3.132,7.869,6.263,14.132,9.396c7.81,0,14.073-1.527,20.337-1.527c18.81,0,31.357,3.054,36.016,10.922
		c1.527,3.151,1.527,6.283,1.527,9.415C303.341,488.58,301.736,493.317,298.683,496.449L298.683,496.449z M196.841,435.36
		c-3.132,10.941-9.415,23.489-15.6,37.542c-3.132,6.283-6.264,11.02-9.415,17.283h3.152c20.336-7.868,39.147-12.547,51.596-14.152
		c-3.132-1.527-4.658-3.132-6.185-4.659C212.52,461.98,203.105,449.433,196.841,435.36L196.841,435.36z M196.841,435.36"/>
</g>
</svg>
